# xmcd
#
# Track frame offsets:
#	150
#	18615
#	36055
#	46115
#	56655
#	76157
#	86455
#	99767
#	114057
#	135260
#	161885
#	173765
#	191552
#	202082
#	228507
#
# Disc length: 3278 seconds
#
# Revision: 1
# Processed by: cddbd v1.5.1PL0 Copyright (c) Steve Scherf et al.
# Submitted via: CDex 1.50Beta5
#
DISCID=b10ccc0f
DTITLE=UNSCANDAL - 「極」Battle.2<セルフカヴァー>
DYEAR=2003
DGENRE=Rock
TTITLE0=UNSCANDAL/SUPER HIT
TTITLE1=PET/Come Here
TTITLE2=コンコンジャンプ/ワッチュ
TTITLE3=BOZO/Standing on the hero
TTITLE4=MUSHA×KUSHA/もののけと遊びながら溶けても解けない月を見た
TTITLE5=BIG HAND FAMILY/行動
TTITLE6=マッスルドッキング/気持のままに
TTITLE7=SHACHI/ひまわり
TTITLE8=PAN,THE/常識かぶれ
TTITLE9=Sugar Hill/Fry
TTITLE10=ゆーこときカズ/Born Crime
TTITLE11=CULT OF PERSONALITY×70☆/Walking by myself?ver.03
TTITLE12=NOB/Sunset Love
TTITLE13=ガンジンルー/笑っておくれ
TTITLE14=FULL MONTY/Viva Carnival
EXTD=
EXTT0=
EXTT1=
EXTT2=
EXTT3=
EXTT4=
EXTT5=
EXTT6=
EXTT7=
EXTT8=
EXTT9=
EXTT10=
EXTT11=
EXTT12=
EXTT13=
EXTT14=
PLAYORDER=
